# xmcd
#
# Track frame offsets: 
#        150
#        6087
#        20835
#        36636
#        52738
#        65568
#        78681
#        96611
#        111559
#        132509
#        142957
#        163444
#        178424
#        192643
#        211993
#        225890
#        242110
#        259070
#        270652
#        290102
#        306187
#        322412
#
# Disc length: 4441 seconds
#
# Revision: 4
# Processed by: cddbd v1.5.2PL0 Copyright (c) Steve Scherf et al.
# Submitted via: ExactAudioCopy v1.1
#
DISCID=67115716
DTITLE=Various Artist - Romantic Collection. Modern Classics
DYEAR=2000
DGENRE=Classical
TTITLE0=Bach - Badinerie
TTITLE1=Mozart - Symphonie N40
TTITLE2=Vivaldi - The Spring (The Four Seasons)
TTITLE3=Giazotto - Albinoni's Adagio
TTITLE4=Brahms - Hungarian Dance N5
TTITLE5=Bethoven - Symphony N5
TTITLE6=Bethoven - Moonlight Sonata
TTITLE7=Brahms - Symphony N3
TTITLE8=Bach - Toccata and Fugue in DM
TTITLE9=Verdi - La Traviata Prelude
TTITLE10=Rossini - La Gazza Ladra
TTITLE11=Bizet - Carmen (Habanera)
TTITLE12=Bizet - Carmen (Mediey)
TTITLE13=Schubert - Ave Maria
TTITLE14=Rubinstein - Melody
TTITLE15=Giazotto - Albinoni's Adagio
TTITLE16=Pachelbel - Canon
TTITLE17=Bach - Prelude in C
TTITLE18=Mozart - Symphony N40 (Minuet)
TTITLE19=Beethoven - Sonata "Pathetique"
TTITLE20=Bach - Aria
TTITLE21=Mozart - Canzona
EXTD=Release year: 2000\nRelease country: RU\nRelease label: Barracuda
EXTD=\nRelease catalog#: \nTotal playing time: 01:13:59
EXTT0=
EXTT1=
EXTT2=
EXTT3=
EXTT4=
EXTT5=
EXTT6=
EXTT7=
EXTT8=
EXTT9=
EXTT10=
EXTT11=
EXTT12=
EXTT13=
EXTT14=
EXTT15=
EXTT16=
EXTT17=
EXTT18=
EXTT19=
EXTT20=
EXTT21=
PLAYORDER=
